<?xml version="1.0" standalone="no"?><!DOCTYPE svg PUBLIC "-//W3C//DTD SVG 1.1//EN" "http://www.w3.org/Graphics/SVG/1.1/DTD/svg11.dtd"><svg class="icon" width="16px" height="16.00px" viewBox="0 0 1024 1024" version="1.1" xmlns="http://www.w3.org/2000/svg"><path fill="#1afa29" d="M537.918 418.316c70.429-68.089 230.276-62.694 298.537-60.39 7.878 0.266 14.513 0.49 20.104 0.585l-60.388 57.024c-12.849 12.134-13.429 32.387-1.295 45.237 6.295 6.666 14.773 10.029 23.271 10.029a31.898 31.898 0 0 0 21.965-8.734l108.651-102.6c12.849-12.134 13.43-32.387 1.296-45.236L847.46 205.58c-12.134-12.85-32.387-13.43-45.235-1.296-12.85 12.134-13.431 32.387-1.296 45.236l42.107 44.591-4.421-0.148c-37.299-1.258-99.727-3.366-163.586 4.931-80.999 10.524-142.097 35.224-181.595 73.411-35.704 34.519-53.807 79.293-53.807 133.08v16.257c0 80.96-65.865 146.825-146.825 146.825H97.719c-17.673 0-32 14.327-32 32s14.327 32 32 32h195.082c56.116 0 109.004-21.984 148.922-61.902 39.918-39.919 61.902-92.807 61.902-148.923v-16.257c0.001-36.279 11.217-64.759 34.293-87.069zM97.72 357.28h195.081c42.772 0 81.196 18.563 107.973 47.921l45.959-45.958c-38.581-41.118-93.229-66.99-153.932-66.99H97.72c-17.956 0-32.514 14.558-32.514 32.514S79.764 357.28 97.72 357.28zM847.461 563.229c-12.134-12.851-32.388-13.43-45.236-1.297-12.85 12.134-13.431 32.387-1.297 45.236l55.751 59.04c-5.571 0.096-12.386 0.323-20.243 0.585-59.74 2.044-189.657 6.404-268.207-38.205l-47.103 47.103c73.88 49.274 182.5 57.288 259.825 57.288 22.385 0 42.158-0.667 57.685-1.191l1.429-0.05-43.89 41.446c-12.85 12.134-13.431 32.387-1.296 45.236 6.295 6.666 14.773 10.029 23.271 10.029a31.898 31.898 0 0 0 21.964-8.733l108.651-102.601c12.85-12.134 13.431-32.386 1.297-45.235L847.461 563.229z" /></svg>