<?xml version="1.0" standalone="no"?><!DOCTYPE svg PUBLIC "-//W3C//DTD SVG 1.1//EN" "http://www.w3.org/Graphics/SVG/1.1/DTD/svg11.dtd"><svg class="icon" width="200px" height="200.00px" viewBox="0 0 1024 1024" version="1.1" xmlns="http://www.w3.org/2000/svg"><path fill="#cdcdcd" d="M888.18 331.756l-135.712 135.712c-2.544 2.544-6.362 3.816-9.756 3.816-7.208 0-13.57-5.938-13.57-13.57v-81.428h-108.57c-56.406 0-83.126 38.594-106.874 84.396-12.3 23.75-22.902 48.348-33.08 72.522-47.076 109.418-102.21 223.078-240.042 223.078h-95c-7.634 0-13.572-5.938-13.572-13.57v-81.43c0-7.632 5.938-13.57 13.572-13.57h95c56.406 0 83.124-38.594 106.874-84.396 12.298-23.75 22.902-48.348 33.08-72.522 47.076-109.42 102.208-223.078 240.042-223.078h108.57V186.29c0-7.634 5.938-13.572 13.57-13.572 3.818 0 7.21 1.698 10.18 4.242l135.29 135.29c2.544 2.542 3.816 6.362 3.816 9.754s-1.274 7.206-3.818 9.752zM356.354 478.92c-24.598-51.316-51.742-102.632-115.78-102.632h-95c-7.634 0-13.572-5.938-13.572-13.572v-81.428c0-7.632 5.938-13.57 13.572-13.57h95c75.49 0 131.048 35.2 173.882 95.422-23.748 36.472-41.138 75.914-58.102 115.78zM888.18 711.752l-135.712 135.712c-2.544 2.544-6.362 3.818-9.756 3.818-7.208 0-13.57-6.364-13.57-13.572v-81.428c-125.958 0-203.57 14.844-282.028-95.424 23.326-36.472 40.714-75.914 57.678-115.78 24.598 51.316 51.74 102.632 115.78 102.632h108.57v-81.428c0-7.634 5.938-13.572 13.57-13.572 3.818 0 7.21 1.698 10.18 4.242l135.29 135.29c2.544 2.544 3.816 6.362 3.816 9.754s-1.274 7.212-3.818 9.756z"  /></svg>